<svg width="65" height="59" viewBox="0 0 65 59" fill="none" xmlns="http://www.w3.org/2000/svg">
<path d="M65 54C65 56.7614 62.7614 59 60 59L5 59C2.23858 59 0 56.7614 0 54L0 5C0 2.23858 2.23858 0 5 0L60 0C62.7614 0 65 2.23858 65 5L65 54Z" fill="#20113D"/>
<path fill-rule="evenodd" clip-rule="evenodd" d="M31.4313 40.38C31.6134 40.3008 31.7789 40.1847 31.9182 40.0384C32.0578 39.8925 32.1686 39.7191 32.2442 39.5283C32.3197 39.3374 32.3586 39.1328 32.3586 38.9261C32.3586 38.7195 32.3197 38.5148 32.2442 38.324C32.1686 38.1331 32.0578 37.9597 31.9182 37.8138L25.8905 31.5L43.0411 31.5C43.4655 31.5 43.8724 31.2893 44.1725 30.9142C44.4725 30.5391 44.6411 30.0304 44.6411 29.5C44.6411 28.9696 44.4725 28.4609 44.1725 28.0858C43.8724 27.7107 43.4655 27.5 43.0411 27.5L25.8897 27.5L31.9182 21.1854C32.1997 20.8904 32.3579 20.4903 32.3579 20.0731C32.3579 19.6559 32.1997 19.2557 31.9182 18.9607C31.6366 18.6657 31.2548 18.5 30.8566 18.5C30.4585 18.5 30.0766 18.6657 29.7951 18.9607L20.7991 28.3873C20.6595 28.5332 20.5487 28.7066 20.4731 28.8974C20.3976 29.0883 20.3586 29.2929 20.3586 29.4996C20.3586 29.7062 20.3976 29.9109 20.4731 30.1017C20.5487 30.2926 20.6595 30.466 20.7991 30.6119L29.7951 40.0384C29.9344 40.1847 30.0998 40.3008 30.282 40.38C30.4641 40.4592 30.6594 40.5 30.8566 40.5C31.0539 40.5 31.2491 40.4592 31.4313 40.38Z" fill="white"/>
<path d="M60 58L5 58V60L60 60V58ZM1 54L1 5H-1L-1 54L1 54ZM5 1L60 1V-1L5 -1V1ZM64 5L64 54H66L66 5H64ZM60 1C62.2091 1 64 2.79086 64 5H66C66 1.68629 63.3137 -1 60 -1V1ZM1 5C1 2.79086 2.79086 1 5 1V-1C1.68629 -1 -1 1.68629 -1 5H1ZM5 58C2.79086 58 1 56.2091 1 54L-1 54C-1 57.3137 1.68629 60 5 60V58ZM60 60C63.3137 60 66 57.3137 66 54H64C64 56.2091 62.2091 58 60 58V60Z" fill="#20113D"/>
</svg>
