<svg width="65" height="60" viewBox="0 0 65 60" fill="none" xmlns="http://www.w3.org/2000/svg">
<path d="M64.8647 55C64.8647 57.7614 62.6262 60 59.8647 60L4.99988 60C2.23846 60 -0.00012207 57.7614 -0.00012207 55V5C-0.00012207 2.23858 2.23845 0 4.99988 0L59.8647 0C62.6262 0 64.8647 2.23858 64.8647 5V55Z" fill="white"/>
<path fill-rule="evenodd" clip-rule="evenodd" d="M31.3639 40.88C31.5461 40.8008 31.7115 40.6847 31.8508 40.5384C31.9904 40.3925 32.1012 40.2191 32.1768 40.0283C32.2524 39.8374 32.2913 39.6328 32.2913 39.4261C32.2913 39.2195 32.2524 39.0148 32.1768 38.824C32.1012 38.6331 31.9904 38.4597 31.8508 38.3138L25.8231 32H42.9737C43.3981 32 43.805 31.7893 44.1051 31.4142C44.4052 31.0391 44.5737 30.5304 44.5737 30C44.5737 29.4696 44.4052 28.9609 44.1051 28.5858C43.805 28.2107 43.3981 28 42.9737 28H25.8223L31.8508 21.6854C32.1323 21.3904 32.2905 20.9903 32.2905 20.5731C32.2905 20.1559 32.1323 19.7557 31.8508 19.4607C31.5692 19.1657 31.1874 19 30.7893 19C30.3911 19 30.0093 19.1657 29.7277 19.4607L20.7317 28.8873C20.5921 29.0332 20.4813 29.2066 20.4058 29.3974C20.3302 29.5883 20.2913 29.7929 20.2913 29.9996C20.2913 30.2062 20.3302 30.4109 20.4058 30.6017C20.4813 30.7926 20.5921 30.966 20.7317 31.1119L29.7277 40.5384C29.867 40.6847 30.0325 40.8008 30.2146 40.88C30.3968 40.9592 30.592 41 30.7893 41C30.9865 41 31.1817 40.9592 31.3639 40.88Z" fill="#20113D"/>
<path d="M59.8647 59L4.99988 59V61L59.8647 61V59ZM0.999878 55L0.999878 5H-1.00012V55H0.999878ZM4.99988 1L59.8647 1V-1L4.99988 -1V1ZM63.8647 5L63.8647 55H65.8647V5H63.8647ZM59.8647 1C62.0739 1 63.8647 2.79086 63.8647 5H65.8647C65.8647 1.68629 63.1785 -1 59.8647 -1V1ZM0.999878 5C0.999878 2.79086 2.79074 1 4.99988 1V-1C1.68617 -1 -1.00012 1.68629 -1.00012 5H0.999878ZM4.99988 59C2.79074 59 0.999878 57.2091 0.999878 55H-1.00012C-1.00012 58.3137 1.68617 61 4.99988 61V59ZM59.8647 61C63.1785 61 65.8647 58.3137 65.8647 55H63.8647C63.8647 57.2091 62.0739 59 59.8647 59V61Z" fill="white"/>
</svg>
