<svg width="65" height="60" viewBox="0 0 65 60" fill="none" xmlns="http://www.w3.org/2000/svg">
<path d="M0 5C0 2.23858 2.23858 0 5 0H59.8649C62.6263 0 64.8649 2.23858 64.8649 5V55C64.8649 57.7614 62.6263 60 59.8649 60H5C2.23858 60 0 57.7614 0 55V5Z" fill="white"/>
<path fill-rule="evenodd" clip-rule="evenodd" d="M33.5008 19.12C33.3187 19.1992 33.1532 19.3153 33.014 19.4616C32.8743 19.6075 32.7636 19.7809 32.688 19.9717C32.6124 20.1626 32.5735 20.3672 32.5735 20.5739C32.5735 20.7805 32.6124 20.9852 32.688 21.176C32.7636 21.3669 32.8743 21.5403 33.014 21.6862L39.0417 28H21.891C21.4667 28 21.0597 28.2107 20.7596 28.5858C20.4596 28.9609 20.291 29.4696 20.291 30C20.291 30.5304 20.4596 31.0391 20.7596 31.4142C21.0597 31.7893 21.4667 32 21.891 32H39.0424L33.014 38.3146C32.7324 38.6096 32.5743 39.0097 32.5743 39.4269C32.5743 39.8441 32.7324 40.2443 33.014 40.5393C33.2955 40.8343 33.6773 41 34.0755 41C34.4736 41 34.8555 40.8343 35.137 40.5393L44.133 31.1127C44.2726 30.9668 44.3834 30.7934 44.459 30.6026C44.5346 30.4117 44.5735 30.2071 44.5735 30.0004C44.5735 29.7938 44.5346 29.5891 44.459 29.3983C44.3834 29.2074 44.2726 29.034 44.133 28.8881L35.137 19.4616C34.9977 19.3153 34.8323 19.1992 34.6501 19.12C34.468 19.0408 34.2727 19 34.0755 19C33.8783 19 33.683 19.0408 33.5008 19.12Z" fill="#20113D"/>
<path d="M5 1H59.8649V-1H5V1ZM63.8649 5V55H65.8649V5H63.8649ZM59.8649 59H5V61H59.8649V59ZM1 55V5H-1V55H1ZM5 59C2.79086 59 1 57.2091 1 55H-1C-1 58.3137 1.68629 61 5 61V59ZM63.8649 55C63.8649 57.2091 62.074 59 59.8649 59V61C63.1786 61 65.8649 58.3137 65.8649 55H63.8649ZM59.8649 1C62.074 1 63.8649 2.79086 63.8649 5H65.8649C65.8649 1.68629 63.1786 -1 59.8649 -1V1ZM5 -1C1.68629 -1 -1 1.68629 -1 5H1C1 2.79086 2.79086 1 5 1V-1Z" fill="white"/>
</svg>
